Coordinates
version=1
nRows=17
nColumns=24
inDegrees=yes

Units are S.I. units (second, meters, Newtons, ...)
Angles are in degrees.

endheader
time	pelvis_tilt	pelvis_list	pelvis_rotation	pelvis_tx	pelvis_ty	pelvis_tz	hip_flexion_r	hip_adduction_r	hip_rotation_r	knee_angle_r	ankle_angle_r	subtalar_angle_r	mtp_angle_r	hip_flexion_l	hip_adduction_l	hip_rotation_l	knee_angle_l	ankle_angle_l	subtalar_angle_l	mtp_angle_l	lumbar_extension	lumbar_bending	lumbar_rotation
      3.88000000	     14.66791748	     -1.67286341	     -0.54274018	     -0.88475209	      0.73822561	     -0.29530852	    -25.87891247	      2.23575117	     -5.55001472	    -23.27341166	     31.96519932	     22.43088311	      0.00000000	     10.79835472	      1.41297242	     -6.40231239	     -7.80615302	     18.19862062	     10.02974188	      0.00000000	    -38.11643942	      2.97568118	     10.01783321
      3.88500000	     14.73820256	     -1.22708425	     -0.40889633	     -0.87718135	      0.73810851	     -0.29590587	    -25.90019070	      1.67637287	     -5.80561234	    -24.59127490	     31.21251254	     22.80508337	      0.00000000	     10.66818928	      1.99507637	     -6.18636773	     -8.47936847	     17.66061870	      9.37065477	      0.00000000	    -37.94685790	      2.60463149	      9.69788472
      3.89000000	     14.79400889	     -0.75751940	     -0.27307480	     -0.86958708	      0.73802579	     -0.29652187	    -25.84510046	      1.08622325	     -6.09867798	    -26.01374690	     30.28416566	     23.14345812	      0.00000000	     10.57154489	      2.59665094	     -5.93875814	     -9.27703384	     17.11073711	      8.59133933	      0.00000000	    -37.76074568	      2.21074389	      9.39134464
      3.89500000	     14.85704367	     -0.27283568	     -0.12706755	     -0.86198673	      0.73800490	     -0.29716524	    -25.73912385	      0.47527017	     -6.42264068	    -27.52855755	     29.16538808	     23.46924893	      0.00000000	     10.46780893	      3.21429459	     -5.61247457	    -10.14675487	     16.53953632	      7.68330299	      0.00000000	    -37.58837310	      1.80538111	      9.08573670
      3.90000000	     14.92253405	      0.23407982	      0.01135655	     -0.85440555	      0.73804223	     -0.29781611	    -25.56811585	     -0.16873071	     -6.75868113	    -29.14632493	     27.88898849	     23.72538869	      0.00000000	     10.36236759	      3.85033281	     -5.26132984	    -11.07179169	     15.92440731	      6.71515105	      0.00000000	    -37.42933001	      1.37902212	      8.78637728
      3.90500000	     14.99390264	      0.74634896	      0.15222354	     -0.84684337	      0.73814408	     -0.29849264	    -25.34094995	     -0.82886900	     -7.10496191	    -30.84197206	     26.39491056	     23.93977219	      0.00000000	     10.24154601	      4.49472178	     -4.83530996	    -12.02519555	     15.33348039	      5.67385502	      0.00000000	    -37.28696784	      0.94850332	      8.50400359
      3.91000000	     14.51932506	      1.19831992	      0.18685728	     -0.83901206	      0.73814995	     -0.29904604	    -24.42046468	     -1.46299628	     -7.22198923	    -32.66415409	     24.62782731	     23.91982008	      0.00000000	     10.67119822	      5.04785178	     -4.51260460	    -12.98163168	     14.66685732	      4.67105150	      0.00000000	    -36.27699483	      0.52871040	      8.35672451
      3.91500000	     14.62848533	      1.72334188	      0.32122046	     -0.83152373	      0.73838225	     -0.29974957	    -24.10547422	     -2.15439532	     -7.55493681	    -34.49416054	     22.74020921	     23.89747891	      0.00000000	     10.48392037	      5.70900280	     -4.02574760	    -13.94042353	     14.14411123	      3.63680571	      0.00000000	    -36.09083440	      0.09073606	      8.10561297
      3.92000000	     14.73494400	      2.25688902	      0.41599458	     -0.82408501	      0.73867836	     -0.30042538	    -23.71031137	     -2.87999548	     -7.85103784	    -36.39506445	     20.68656714	     23.75689752	      0.00000000	     10.27805196	      6.37044642	     -3.60124731	    -14.87595273	     13.69743498	      2.71316952	      0.00000000	    -35.93759664	     -0.37481367	      7.89860011
      3.92500000	     14.83722385	      2.78337321	      0.48725990	     -0.81670930	      0.73903622	     -0.30109619	    -23.24105612	     -3.61258825	     -8.10029684	    -38.33893426	     18.46788016	     23.44954989	      0.00000000	     10.05430317	      7.02506085	     -3.18301252	    -15.77929157	     13.34443903	      1.86239122	      0.00000000	    -35.81797797	     -0.84062163	      7.72727481
      3.93000000	     14.93223354	      3.30195337	      0.53194411	     -0.80939801	      0.73944868	     -0.30174383	    -22.69595826	     -4.34827865	     -8.29061473	    -40.30741999	     16.13130975	     22.97905308	      0.00000000	      9.80812903	      7.67137850	     -2.77546399	    -16.63228612	     13.10147931	      1.10929863	      0.00000000	    -35.72370215	     -1.30909829	      7.58773203
      3.93500000	     15.02075496	      3.80701081	      0.55021213	     -0.80217134	      0.73990840	     -0.30237561	    -22.07233388	     -5.08361382	     -8.43101553	    -42.29913704	     13.73614188	     22.32223645	      0.00000000	      9.53574357	      8.30391965	     -2.40186307	    -17.41861852	     12.96042025	      0.44983417	      0.00000000	    -35.65734763	     -1.76936062	      7.47449113
      3.94000000	     15.11012057	      4.31426561	      0.55210325	     -0.79500478	      0.74043321	     -0.30296768	    -21.40447278	     -5.81666633	     -8.50587730	    -44.25527671	     11.31458081	     21.52851581	      0.00000000	      9.23676118	      8.93377754	     -2.06962782	    -18.16186978	     12.90384062	     -0.02927988	      0.00000000	    -35.61929751	     -2.24419210	      7.39290504
      3.94500000	     15.16626150	      4.78163833	      0.52405937	     -0.78794101	      0.74095125	     -0.30356243	    -20.62290008	     -6.52066912	     -8.51576267	    -46.22986619	      9.00601952	     20.49001883	      0.00000000	      8.92778253	      9.53877512	     -1.70665928	    -18.80523399	     12.98988020	     -0.59612389	      0.00000000	    -35.57187042	     -2.67639469	      7.33906725
      3.95000000	     15.22210483	      5.24435794	      0.48686684	     -0.78094556	      0.74152000	     -0.30412122	    -19.80194721	     -7.21065997	     -8.47301176	    -48.15280944	      6.81341330	     19.33817274	      0.00000000	      8.58481369	     10.13354394	     -1.39854775	    -19.38107435	     13.14601385	     -0.99018210	      0.00000000	    -35.54590996	     -3.10883185	      7.29319316
      3.95500000	     15.26935644	      5.68597967	      0.43728454	     -0.77402782	      0.74211921	     -0.30465000	    -18.92852304	     -7.86796662	     -8.36919483	    -50.02834501	      4.82301595	     18.04560885	      0.00000000	      8.21102007	     10.70677773	     -1.11937850	    -19.87459340	     13.38667378	     -1.30537524	      0.00000000	    -35.52875723	     -3.52185628	      7.25720009
      3.96000000	     15.30096959	      6.09720435	      0.38410180	     -0.76719076	      0.74273734	     -0.30515989	    -17.99927874	     -8.47980998	     -8.21283803	    -51.85091181	      3.08212550	     16.64311311	      0.00000000	      7.81392454	     11.25001796	     -0.85188433	    -20.28552936	     13.69918778	     -1.55328596	      0.00000000	    -35.51040905	     -3.90304479	      7.24259599
